<svg width="88" height="66" viewBox="0 0 88 66" fill="none" xmlns="http://www.w3.org/2000/svg">
<path d="M82.5 55C82.5 56.4587 81.9205 57.8576 80.8891 58.8891C79.8576 59.9205 78.4587 60.5 77 60.5H11C9.54131 60.5 8.14236 59.9205 7.11091 58.8891C6.07946 57.8576 5.5 56.4587 5.5 55V22C5.5 20.5413 6.07946 19.1424 7.11091 18.1109C8.14236 17.0795 9.54131 16.5 11 16.5H17.446C21.8198 16.4976 26.0137 14.7587 29.106 11.6655L33.671 7.1115C34.6995 6.08267 36.0937 5.50322 37.5485 5.5H50.4405C51.8991 5.50031 53.2978 6.07998 54.329 7.1115L58.883 11.6655C60.4155 13.1984 62.235 14.4144 64.2375 15.2439C66.2401 16.0734 68.3864 16.5003 70.554 16.5H77C78.4587 16.5 79.8576 17.0795 80.8891 18.1109C81.9205 19.1424 82.5 20.5413 82.5 22V55ZM11 11C8.08262 11 5.28473 12.1589 3.22183 14.2218C1.15893 16.2847 0 19.0826 0 22L0 55C0 57.9174 1.15893 60.7153 3.22183 62.7782C5.28473 64.8411 8.08262 66 11 66H77C79.9174 66 82.7153 64.8411 84.7782 62.7782C86.8411 60.7153 88 57.9174 88 55V22C88 19.0826 86.8411 16.2847 84.7782 14.2218C82.7153 12.1589 79.9174 11 77 11H70.554C67.6369 10.9994 64.8394 9.84004 62.777 7.777L58.223 3.223C56.1606 1.15996 53.3631 0.000623011 50.446 0H37.554C34.6369 0.000623011 31.8394 1.15996 29.777 3.223L25.223 7.777C23.1606 9.84004 20.3631 10.9994 17.446 11H11Z" fill="#FF8883"/>
<path d="M43.998 49.5015C40.3513 49.5015 36.854 48.0528 34.2753 45.4742C31.6967 42.8956 30.248 39.3982 30.248 35.7515C30.248 32.1047 31.6967 28.6074 34.2753 26.0287C36.854 23.4501 40.3513 22.0015 43.998 22.0015C47.6448 22.0015 51.1421 23.4501 53.7208 26.0287C56.2994 28.6074 57.748 32.1047 57.748 35.7515C57.748 39.3982 56.2994 42.8956 53.7208 45.4742C51.1421 48.0528 47.6448 49.5015 43.998 49.5015ZM43.998 55.0015C49.1035 55.0015 53.9998 52.9733 57.6098 49.3633C61.2199 45.7532 63.248 40.8569 63.248 35.7515C63.248 30.646 61.2199 25.7497 57.6098 22.1397C53.9998 18.5296 49.1035 16.5015 43.998 16.5015C38.8926 16.5015 33.9963 18.5296 30.3862 22.1397C26.7762 25.7497 24.748 30.646 24.748 35.7515C24.748 40.8569 26.7762 45.7532 30.3862 49.3633C33.9963 52.9733 38.8926 55.0015 43.998 55.0015V55.0015ZM16.498 24.7515C16.498 25.4808 16.2083 26.1803 15.6926 26.696C15.1769 27.2117 14.4774 27.5015 13.748 27.5015C13.0187 27.5015 12.3192 27.2117 11.8035 26.696C11.2878 26.1803 10.998 25.4808 10.998 24.7515C10.998 24.0221 11.2878 23.3226 11.8035 22.8069C12.3192 22.2912 13.0187 22.0015 13.748 22.0015C14.4774 22.0015 15.1769 22.2912 15.6926 22.8069C16.2083 23.3226 16.498 24.0221 16.498 24.7515V24.7515Z" fill="#FF8883"/>
</svg>
